<mxfile host="app.diagrams.net" modified="2020-09-15T07:18:03.172Z" agent="5.0 (Macintosh; Intel Mac OS X 10_13_6) AppleWebKit/537.36 (KHTML, like Gecko) Chrome/85.0.4183.102 Safari/537.36" etag="wfQIDpuaQ79GDIqxFDB6" version="13.7.1" type="github">
  <diagram id="yWoye2Kw_H8vIAHeB6Sl" name="Page-1">
    <mxGraphModel dx="2719" dy="1048" grid="1" gridSize="10" guides="1" tooltips="1" connect="1" arrows="1" fold="1" page="1" pageScale="1" pageWidth="827" pageHeight="1169" math="0" shadow="0">
      <root>
        <mxCell id="0" />
        <mxCell id="1" parent="0" />
        <mxCell id="uwrhguTHplQGWkpkG8sg-5" style="edgeStyle=orthogonalEdgeStyle;rounded=0;orthogonalLoop=1;jettySize=auto;html=1;entryX=0.463;entryY=-0.012;entryDx=0;entryDy=0;entryPerimeter=0;" parent="1" source="uwrhguTHplQGWkpkG8sg-1" target="uwrhguTHplQGWkpkG8sg-7" edge="1">
          <mxGeometry relative="1" as="geometry">
            <mxPoint x="300" y="340" as="targetPoint" />
          </mxGeometry>
        </mxCell>
        <mxCell id="uwrhguTHplQGWkpkG8sg-15" style="edgeStyle=orthogonalEdgeStyle;rounded=0;orthogonalLoop=1;jettySize=auto;html=1;entryX=0.5;entryY=0;entryDx=0;entryDy=0;" parent="1" source="uwrhguTHplQGWkpkG8sg-1" target="uwrhguTHplQGWkpkG8sg-11" edge="1">
          <mxGeometry relative="1" as="geometry" />
        </mxCell>
        <mxCell id="uwrhguTHplQGWkpkG8sg-1" value="library" style="rounded=0;whiteSpace=wrap;html=1;" parent="1" vertex="1">
          <mxGeometry x="120" y="220" width="120" height="50" as="geometry" />
        </mxCell>
        <mxCell id="SwFgUw05B9-wzvHkl7Cm-1" value="account wallet&lt;br&gt;" style="whiteSpace=wrap;html=1;" parent="1" vertex="1">
          <mxGeometry x="-310" y="380" width="120" height="60" as="geometry" />
        </mxCell>
        <mxCell id="SwFgUw05B9-wzvHkl7Cm-2" value="calendar&lt;br&gt;date&lt;br&gt;fine&lt;br&gt;record" style="whiteSpace=wrap;html=1;" parent="1" vertex="1">
          <mxGeometry x="660" y="370" width="120" height="60" as="geometry" />
        </mxCell>
        <mxCell id="SwFgUw05B9-wzvHkl7Cm-31" style="edgeStyle=orthogonalEdgeStyle;rounded=0;orthogonalLoop=1;jettySize=auto;html=1;entryX=0.5;entryY=0;entryDx=0;entryDy=0;" parent="1" source="uwrhguTHplQGWkpkG8sg-11" target="SwFgUw05B9-wzvHkl7Cm-3" edge="1">
          <mxGeometry relative="1" as="geometry" />
        </mxCell>
        <mxCell id="SwFgUw05B9-wzvHkl7Cm-32" style="edgeStyle=orthogonalEdgeStyle;rounded=0;orthogonalLoop=1;jettySize=auto;html=1;entryX=0.5;entryY=0;entryDx=0;entryDy=0;" parent="1" source="uwrhguTHplQGWkpkG8sg-11" target="SwFgUw05B9-wzvHkl7Cm-7" edge="1">
          <mxGeometry relative="1" as="geometry" />
        </mxCell>
        <mxCell id="SwFgUw05B9-wzvHkl7Cm-33" style="edgeStyle=orthogonalEdgeStyle;rounded=0;orthogonalLoop=1;jettySize=auto;html=1;entryX=0.5;entryY=0;entryDx=0;entryDy=0;" parent="1" source="uwrhguTHplQGWkpkG8sg-11" target="SwFgUw05B9-wzvHkl7Cm-34" edge="1">
          <mxGeometry relative="1" as="geometry">
            <mxPoint x="-390" y="810" as="targetPoint" />
            <Array as="points">
              <mxPoint x="-50" y="760" />
              <mxPoint x="-420" y="760" />
              <mxPoint x="-420" y="810" />
            </Array>
          </mxGeometry>
        </mxCell>
        <mxCell id="uwrhguTHplQGWkpkG8sg-11" value="user" style="swimlane;fontStyle=1;align=center;verticalAlign=top;childLayout=stackLayout;horizontal=1;startSize=26;horizontalStack=0;resizeParent=1;resizeParentMax=0;resizeLast=0;collapsible=1;marginBottom=0;" parent="1" vertex="1">
          <mxGeometry x="-130" y="360" width="160" height="368" as="geometry" />
        </mxCell>
        <mxCell id="uwrhguTHplQGWkpkG8sg-12" value="string name;&#xa;int.     age;&#xa;string address;&#xa;int   phone number;&#xa;string sexual;&#xa;string password;&#xa;int   Id;&#xa;int   max_book_rent_num;&#xa;int   current_book_rent;&#xa;book   book_rent_list;&#xa;string email;&#xa;&#xa;" style="text;strokeColor=none;fillColor=none;align=left;verticalAlign=top;spacingLeft=4;spacingRight=4;overflow=hidden;rotatable=0;points=[[0,0.5],[1,0.5]];portConstraint=eastwest;" parent="uwrhguTHplQGWkpkG8sg-11" vertex="1">
          <mxGeometry y="26" width="160" height="194" as="geometry" />
        </mxCell>
        <mxCell id="uwrhguTHplQGWkpkG8sg-13" value="" style="line;strokeWidth=1;fillColor=none;align=left;verticalAlign=middle;spacingTop=-1;spacingLeft=3;spacingRight=3;rotatable=0;labelPosition=right;points=[];portConstraint=eastwest;" parent="uwrhguTHplQGWkpkG8sg-11" vertex="1">
          <mxGeometry y="220" width="160" height="8" as="geometry" />
        </mxCell>
        <mxCell id="uwrhguTHplQGWkpkG8sg-14" value="log_in();&#xa;log_out();&#xa;create_account();&#xa;rent_book();&#xa;return_book();&#xa;change_password();&#xa;change_phone_number();&#xa;change_email();&#xa;search_book();" style="text;strokeColor=none;fillColor=none;align=left;verticalAlign=top;spacingLeft=4;spacingRight=4;overflow=hidden;rotatable=0;points=[[0,0.5],[1,0.5]];portConstraint=eastwest;" parent="uwrhguTHplQGWkpkG8sg-11" vertex="1">
          <mxGeometry y="228" width="160" height="140" as="geometry" />
        </mxCell>
        <mxCell id="SwFgUw05B9-wzvHkl7Cm-3" value="teacher" style="swimlane;fontStyle=1;align=center;verticalAlign=top;childLayout=stackLayout;horizontal=1;startSize=26;horizontalStack=0;resizeParent=1;resizeParentMax=0;resizeLast=0;collapsible=1;marginBottom=0;" parent="1" vertex="1">
          <mxGeometry x="-290" y="800" width="160" height="86" as="geometry" />
        </mxCell>
        <mxCell id="SwFgUw05B9-wzvHkl7Cm-4" value="+ field: type" style="text;strokeColor=none;fillColor=none;align=left;verticalAlign=top;spacingLeft=4;spacingRight=4;overflow=hidden;rotatable=0;points=[[0,0.5],[1,0.5]];portConstraint=eastwest;" parent="SwFgUw05B9-wzvHkl7Cm-3" vertex="1">
          <mxGeometry y="26" width="160" height="26" as="geometry" />
        </mxCell>
        <mxCell id="SwFgUw05B9-wzvHkl7Cm-5" value="" style="line;strokeWidth=1;fillColor=none;align=left;verticalAlign=middle;spacingTop=-1;spacingLeft=3;spacingRight=3;rotatable=0;labelPosition=right;points=[];portConstraint=eastwest;" parent="SwFgUw05B9-wzvHkl7Cm-3" vertex="1">
          <mxGeometry y="52" width="160" height="8" as="geometry" />
        </mxCell>
        <mxCell id="SwFgUw05B9-wzvHkl7Cm-6" value="+ method(type): type" style="text;strokeColor=none;fillColor=none;align=left;verticalAlign=top;spacingLeft=4;spacingRight=4;overflow=hidden;rotatable=0;points=[[0,0.5],[1,0.5]];portConstraint=eastwest;" parent="SwFgUw05B9-wzvHkl7Cm-3" vertex="1">
          <mxGeometry y="60" width="160" height="26" as="geometry" />
        </mxCell>
        <mxCell id="SwFgUw05B9-wzvHkl7Cm-7" value="student" style="swimlane;fontStyle=1;align=center;verticalAlign=top;childLayout=stackLayout;horizontal=1;startSize=26;horizontalStack=0;resizeParent=1;resizeParentMax=0;resizeLast=0;collapsible=1;marginBottom=0;" parent="1" vertex="1">
          <mxGeometry x="-20" y="800" width="160" height="86" as="geometry" />
        </mxCell>
        <mxCell id="SwFgUw05B9-wzvHkl7Cm-8" value="+ field: type" style="text;strokeColor=none;fillColor=none;align=left;verticalAlign=top;spacingLeft=4;spacingRight=4;overflow=hidden;rotatable=0;points=[[0,0.5],[1,0.5]];portConstraint=eastwest;" parent="SwFgUw05B9-wzvHkl7Cm-7" vertex="1">
          <mxGeometry y="26" width="160" height="26" as="geometry" />
        </mxCell>
        <mxCell id="SwFgUw05B9-wzvHkl7Cm-9" value="" style="line;strokeWidth=1;fillColor=none;align=left;verticalAlign=middle;spacingTop=-1;spacingLeft=3;spacingRight=3;rotatable=0;labelPosition=right;points=[];portConstraint=eastwest;" parent="SwFgUw05B9-wzvHkl7Cm-7" vertex="1">
          <mxGeometry y="52" width="160" height="8" as="geometry" />
        </mxCell>
        <mxCell id="SwFgUw05B9-wzvHkl7Cm-10" value="+ method(type): type" style="text;strokeColor=none;fillColor=none;align=left;verticalAlign=top;spacingLeft=4;spacingRight=4;overflow=hidden;rotatable=0;points=[[0,0.5],[1,0.5]];portConstraint=eastwest;" parent="SwFgUw05B9-wzvHkl7Cm-7" vertex="1">
          <mxGeometry y="60" width="160" height="26" as="geometry" />
        </mxCell>
        <mxCell id="SwFgUw05B9-wzvHkl7Cm-28" style="edgeStyle=orthogonalEdgeStyle;rounded=0;orthogonalLoop=1;jettySize=auto;html=1;" parent="1" source="uwrhguTHplQGWkpkG8sg-7" target="SwFgUw05B9-wzvHkl7Cm-11" edge="1">
          <mxGeometry relative="1" as="geometry" />
        </mxCell>
        <mxCell id="SwFgUw05B9-wzvHkl7Cm-29" style="edgeStyle=orthogonalEdgeStyle;rounded=0;orthogonalLoop=1;jettySize=auto;html=1;entryX=0.5;entryY=0;entryDx=0;entryDy=0;" parent="1" source="uwrhguTHplQGWkpkG8sg-7" target="SwFgUw05B9-wzvHkl7Cm-15" edge="1">
          <mxGeometry relative="1" as="geometry" />
        </mxCell>
        <mxCell id="SwFgUw05B9-wzvHkl7Cm-30" style="edgeStyle=orthogonalEdgeStyle;rounded=0;orthogonalLoop=1;jettySize=auto;html=1;entryX=0.45;entryY=-0.002;entryDx=0;entryDy=0;entryPerimeter=0;" parent="1" source="uwrhguTHplQGWkpkG8sg-7" target="SwFgUw05B9-wzvHkl7Cm-19" edge="1">
          <mxGeometry relative="1" as="geometry">
            <Array as="points">
              <mxPoint x="494" y="730" />
              <mxPoint x="772" y="730" />
            </Array>
          </mxGeometry>
        </mxCell>
        <mxCell id="uwrhguTHplQGWkpkG8sg-7" value="material" style="swimlane;fontStyle=1;align=center;verticalAlign=top;childLayout=stackLayout;horizontal=1;startSize=26;horizontalStack=0;resizeParent=1;resizeParentMax=0;resizeLast=0;collapsible=1;marginBottom=0;" parent="1" vertex="1">
          <mxGeometry x="414" y="360" width="160" height="260" as="geometry">
            <mxRectangle x="210" y="360" width="80" height="26" as="alternateBounds" />
          </mxGeometry>
        </mxCell>
        <mxCell id="uwrhguTHplQGWkpkG8sg-8" value="string name;&#xa;int page_number;&#xa;string  autor_name;&#xa;boolean rent_out;&#xa;string category;&#xa;&#xa;" style="text;strokeColor=none;fillColor=none;align=left;verticalAlign=top;spacingLeft=4;spacingRight=4;overflow=hidden;rotatable=0;points=[[0,0.5],[1,0.5]];portConstraint=eastwest;" parent="uwrhguTHplQGWkpkG8sg-7" vertex="1">
          <mxGeometry y="26" width="160" height="94" as="geometry" />
        </mxCell>
        <mxCell id="uwrhguTHplQGWkpkG8sg-9" value="" style="line;strokeWidth=1;fillColor=none;align=left;verticalAlign=middle;spacingTop=-1;spacingLeft=3;spacingRight=3;rotatable=0;labelPosition=right;points=[];portConstraint=eastwest;" parent="uwrhguTHplQGWkpkG8sg-7" vertex="1">
          <mxGeometry y="120" width="160" height="8" as="geometry" />
        </mxCell>
        <mxCell id="uwrhguTHplQGWkpkG8sg-10" value="add_material();&#xa;rent_out();&#xa;return();&#xa;damage();&#xa;state();&#xa;" style="text;strokeColor=none;fillColor=none;align=left;verticalAlign=top;spacingLeft=4;spacingRight=4;overflow=hidden;rotatable=0;points=[[0,0.5],[1,0.5]];portConstraint=eastwest;" parent="uwrhguTHplQGWkpkG8sg-7" vertex="1">
          <mxGeometry y="128" width="160" height="132" as="geometry" />
        </mxCell>
        <mxCell id="SwFgUw05B9-wzvHkl7Cm-11" value="ebook" style="swimlane;fontStyle=1;align=center;verticalAlign=top;childLayout=stackLayout;horizontal=1;startSize=26;horizontalStack=0;resizeParent=1;resizeParentMax=0;resizeLast=0;collapsible=1;marginBottom=0;" parent="1" vertex="1">
          <mxGeometry x="254" y="840" width="160" height="358" as="geometry" />
        </mxCell>
        <mxCell id="SwFgUw05B9-wzvHkl7Cm-12" value="string name;&#xa;int page_number;&#xa;string  autor_name;&#xa;string category;&#xa;string authorization;&#xa;&#xa;" style="text;strokeColor=none;fillColor=none;align=left;verticalAlign=top;spacingLeft=4;spacingRight=4;overflow=hidden;rotatable=0;points=[[0,0.5],[1,0.5]];portConstraint=eastwest;" parent="SwFgUw05B9-wzvHkl7Cm-11" vertex="1">
          <mxGeometry y="26" width="160" height="114" as="geometry" />
        </mxCell>
        <mxCell id="SwFgUw05B9-wzvHkl7Cm-13" value="" style="line;strokeWidth=1;fillColor=none;align=left;verticalAlign=middle;spacingTop=-1;spacingLeft=3;spacingRight=3;rotatable=0;labelPosition=right;points=[];portConstraint=eastwest;" parent="SwFgUw05B9-wzvHkl7Cm-11" vertex="1">
          <mxGeometry y="140" width="160" height="8" as="geometry" />
        </mxCell>
        <mxCell id="SwFgUw05B9-wzvHkl7Cm-14" value="add_material();&#xa;rent_out();&#xa;return();&#xa;damage();&#xa;state();&#xa;" style="text;strokeColor=none;fillColor=none;align=left;verticalAlign=top;spacingLeft=4;spacingRight=4;overflow=hidden;rotatable=0;points=[[0,0.5],[1,0.5]];portConstraint=eastwest;" parent="SwFgUw05B9-wzvHkl7Cm-11" vertex="1">
          <mxGeometry y="148" width="160" height="210" as="geometry" />
        </mxCell>
        <mxCell id="SwFgUw05B9-wzvHkl7Cm-15" value="book" style="swimlane;fontStyle=1;align=center;verticalAlign=top;childLayout=stackLayout;horizontal=1;startSize=26;horizontalStack=0;resizeParent=1;resizeParentMax=0;resizeLast=0;collapsible=1;marginBottom=0;" parent="1" vertex="1">
          <mxGeometry x="480" y="840" width="160" height="388" as="geometry" />
        </mxCell>
        <mxCell id="SwFgUw05B9-wzvHkl7Cm-16" value="string name;&#xa;int page_number;&#xa;string  autor_name;&#xa;boolean rent_out;&#xa;string category;&#xa;&#xa;" style="text;strokeColor=none;fillColor=none;align=left;verticalAlign=top;spacingLeft=4;spacingRight=4;overflow=hidden;rotatable=0;points=[[0,0.5],[1,0.5]];portConstraint=eastwest;" parent="SwFgUw05B9-wzvHkl7Cm-15" vertex="1">
          <mxGeometry y="26" width="160" height="134" as="geometry" />
        </mxCell>
        <mxCell id="SwFgUw05B9-wzvHkl7Cm-17" value="" style="line;strokeWidth=1;fillColor=none;align=left;verticalAlign=middle;spacingTop=-1;spacingLeft=3;spacingRight=3;rotatable=0;labelPosition=right;points=[];portConstraint=eastwest;" parent="SwFgUw05B9-wzvHkl7Cm-15" vertex="1">
          <mxGeometry y="160" width="160" height="8" as="geometry" />
        </mxCell>
        <mxCell id="SwFgUw05B9-wzvHkl7Cm-18" value="add_material();&#xa;rent_out();&#xa;return();&#xa;damage();&#xa;state();&#xa;" style="text;strokeColor=none;fillColor=none;align=left;verticalAlign=top;spacingLeft=4;spacingRight=4;overflow=hidden;rotatable=0;points=[[0,0.5],[1,0.5]];portConstraint=eastwest;" parent="SwFgUw05B9-wzvHkl7Cm-15" vertex="1">
          <mxGeometry y="168" width="160" height="220" as="geometry" />
        </mxCell>
        <mxCell id="SwFgUw05B9-wzvHkl7Cm-19" value="DVD" style="swimlane;fontStyle=1;align=center;verticalAlign=top;childLayout=stackLayout;horizontal=1;startSize=26;horizontalStack=0;resizeParent=1;resizeParentMax=0;resizeLast=0;collapsible=1;marginBottom=0;" parent="1" vertex="1">
          <mxGeometry x="700" y="840" width="160" height="390" as="geometry" />
        </mxCell>
        <mxCell id="SwFgUw05B9-wzvHkl7Cm-20" value="string name;&#xa;string  autor_name;&#xa;boolean rent_out;&#xa;string category;&#xa;&#xa;&#xa;" style="text;strokeColor=none;fillColor=none;align=left;verticalAlign=top;spacingLeft=4;spacingRight=4;overflow=hidden;rotatable=0;points=[[0,0.5],[1,0.5]];portConstraint=eastwest;" parent="SwFgUw05B9-wzvHkl7Cm-19" vertex="1">
          <mxGeometry y="26" width="160" height="144" as="geometry" />
        </mxCell>
        <mxCell id="SwFgUw05B9-wzvHkl7Cm-21" value="" style="line;strokeWidth=1;fillColor=none;align=left;verticalAlign=middle;spacingTop=-1;spacingLeft=3;spacingRight=3;rotatable=0;labelPosition=right;points=[];portConstraint=eastwest;" parent="SwFgUw05B9-wzvHkl7Cm-19" vertex="1">
          <mxGeometry y="170" width="160" height="8" as="geometry" />
        </mxCell>
        <mxCell id="SwFgUw05B9-wzvHkl7Cm-22" value="add_material();&#xa;rent_out();&#xa;return();&#xa;damage();&#xa;state();&#xa;" style="text;strokeColor=none;fillColor=none;align=left;verticalAlign=top;spacingLeft=4;spacingRight=4;overflow=hidden;rotatable=0;points=[[0,0.5],[1,0.5]];portConstraint=eastwest;" parent="SwFgUw05B9-wzvHkl7Cm-19" vertex="1">
          <mxGeometry y="178" width="160" height="212" as="geometry" />
        </mxCell>
        <mxCell id="SwFgUw05B9-wzvHkl7Cm-34" value="Classname" style="swimlane;fontStyle=1;align=center;verticalAlign=top;childLayout=stackLayout;horizontal=1;startSize=26;horizontalStack=0;resizeParent=1;resizeParentMax=0;resizeLast=0;collapsible=1;marginBottom=0;" parent="1" vertex="1">
          <mxGeometry x="-510" y="810" width="160" height="86" as="geometry" />
        </mxCell>
        <mxCell id="SwFgUw05B9-wzvHkl7Cm-35" value="+ field: type" style="text;strokeColor=none;fillColor=none;align=left;verticalAlign=top;spacingLeft=4;spacingRight=4;overflow=hidden;rotatable=0;points=[[0,0.5],[1,0.5]];portConstraint=eastwest;" parent="SwFgUw05B9-wzvHkl7Cm-34" vertex="1">
          <mxGeometry y="26" width="160" height="26" as="geometry" />
        </mxCell>
        <mxCell id="SwFgUw05B9-wzvHkl7Cm-36" value="" style="line;strokeWidth=1;fillColor=none;align=left;verticalAlign=middle;spacingTop=-1;spacingLeft=3;spacingRight=3;rotatable=0;labelPosition=right;points=[];portConstraint=eastwest;" parent="SwFgUw05B9-wzvHkl7Cm-34" vertex="1">
          <mxGeometry y="52" width="160" height="8" as="geometry" />
        </mxCell>
        <mxCell id="SwFgUw05B9-wzvHkl7Cm-37" value="+ method(type): type" style="text;strokeColor=none;fillColor=none;align=left;verticalAlign=top;spacingLeft=4;spacingRight=4;overflow=hidden;rotatable=0;points=[[0,0.5],[1,0.5]];portConstraint=eastwest;" parent="SwFgUw05B9-wzvHkl7Cm-34" vertex="1">
          <mxGeometry y="60" width="160" height="26" as="geometry" />
        </mxCell>
        <mxCell id="BQLJOT4YzUyKt1VpCwhW-1" value="djsal;kdjf;is" style="rounded=0;whiteSpace=wrap;html=1;" vertex="1" parent="1">
          <mxGeometry x="660" y="510" width="120" height="60" as="geometry" />
        </mxCell>
      </root>
    </mxGraphModel>
  </diagram>
</mxfile>
